<svg width="48" height="48" viewBox="0 0 48 48" fill="none" xmlns="http://www.w3.org/2000/svg">
<path d="M1.30877 24C1.30877 11.392 11.4848 1.216 24.0928 1.216C36.6368 1.216 46.7488 11.712 46.7488 24C46.7488 36.352 36.4448 46.784 23.9648 46.784V48C37.1488 48 47.9648 37.248 47.9648 24C47.9648 10.752 37.2768 0 24.0928 0C10.8448 0 0.0927734 10.752 0.0927734 24H1.30877Z" fill="white"/>
<path d="M29.4892 16L23.7532 24.208L17.9932 16H17.4412L23.4652 24.616L16.8892 34H17.4412L30.0412 16H29.4892ZM27.0892 28.984L26.7292 29.344L30.0412 34H30.5932L27.0892 28.984Z" fill="white"/>
</svg>
