<svg width="780" height="102" viewBox="0 0 780 102" fill="none" xmlns="http://www.w3.org/2000/svg">
<path d="M2.58735 51C2.58735 24.208 24.2394 2.58401 51.0661 2.58401C77.7566 2.58401 99.2724 24.888 99.2724 51C99.2724 77.248 77.3481 99.416 50.7937 99.416V102C78.846 102 101.86 79.152 101.86 51C101.86 22.848 79.1183 0 51.0661 0C22.8776 0 0 22.848 0 51H2.58735Z" fill="white"/>
<path d="M228.035 0L195.489 46.512L162.807 0H159.675L193.855 48.824L156.543 102H159.675L231.168 0H228.035ZM214.418 73.576L212.375 75.616L231.168 102H234.3L214.418 73.576Z" fill="white"/>
<path d="M298.289 0.136005V102H301.012V2.992L298.289 0.136005Z" fill="white"/>
<path d="M373.631 102H411.76C439.677 102 462.827 79.56 462.827 50.864C462.827 22.984 439.677 0 411.76 0H373.631L376.491 2.72H411.76C438.179 2.72 459.967 24.344 459.967 50.728C459.967 78.064 437.77 99.28 411.352 99.28H376.491L373.631 102Z" fill="white"/>
<path d="M529.07 0.136005V102H531.793V2.992L529.07 0.136005Z" fill="white"/>
<path d="M652.21 26.112C652.21 11.696 640.499 0 626.065 0C611.63 0 599.919 11.696 599.919 26.112C599.919 35.496 604.821 43.792 612.311 48.28V45.424C606.319 41.072 602.506 34 602.506 26.112C602.506 13.056 612.992 2.58401 626.065 2.58401C639.137 2.58401 649.759 13.056 649.759 26.112H652.21ZM599.919 75.888C599.919 90.304 611.63 102 626.065 102C640.499 102 652.21 90.304 652.21 75.888C652.21 66.504 647.308 58.208 639.818 53.72V56.576C645.81 60.928 649.623 68 649.623 75.888C649.623 88.944 639.137 99.416 626.065 99.416C612.992 99.416 602.37 88.944 602.37 75.888H599.919Z" fill="white"/>
<path d="M716.27 0L719.129 2.72H780V0H716.27ZM716.27 102H779.864V99.28H718.993V51.272H775.642V48.552H719.129L716.27 51.272V102Z" fill="white"/>
</svg>
