<svg width="48" height="48" viewBox="0 0 48 48" fill="none" xmlns="http://www.w3.org/2000/svg">
<path d="M1.30902 24C1.30902 11.392 11.485 1.216 24.093 1.216C36.637 1.216 46.749 11.712 46.749 24C46.749 36.352 36.445 46.784 23.965 46.784V48C37.149 48 47.965 37.248 47.965 24C47.965 10.752 37.277 0 24.093 0C10.845 0 0.0930176 10.752 0.0930176 24H1.30902Z" fill="white"/>
<path d="M29.4892 16L23.7532 24.208L17.9932 16H17.4412L23.4652 24.616L16.8892 34H17.4412L30.0412 16H29.4892ZM27.0892 28.984L26.7292 29.344L30.0412 34H30.5932L27.0892 28.984Z" fill="white"/>
</svg>
