<svg width="100" height="28" viewBox="0 0 100 28" fill="none" xmlns="http://www.w3.org/2000/svg">
<path d="M0.68904 13.5995C0.68904 6.45521 6.45521 0.689042 13.5995 0.689042C20.7075 0.689042 26.4374 6.63654 26.4374 13.5995C26.4374 20.5987 20.5987 26.5099 13.5269 26.5099V27.1989C20.9976 27.1989 27.1264 21.1064 27.1264 13.5995C27.1264 6.09256 21.0701 0 13.5995 0C6.09256 0 0 6.09256 0 13.5995H0.68904Z" fill="white"/>
<path d="M60.7284 0L52.061 12.4027L43.3574 0H42.5233L51.6258 13.0192L41.6892 27.1989H42.5233L61.5625 0H60.7284ZM57.1019 19.6195L56.5579 20.1635L61.5625 27.1989H62.3966L57.1019 19.6195Z" fill="white"/>
<path d="M99.4923 4.56942C97.2076 2.24845 93.98 0.725306 90.3897 0.725306C83.318 0.725306 77.5155 6.52774 77.5155 13.5995H76.8265C76.8265 6.09256 82.9191 0 90.3897 0C94.1613 0 97.534 1.63194 100 3.98918L99.4923 4.56942ZM90.3534 26.5099V27.1989C93.8349 27.1989 97.4614 25.7846 99.9637 23.2098L99.456 22.702C97.0262 25.0956 93.9437 26.5099 90.3534 26.5099Z" fill="white"/>
</svg>
