<svg width="467" height="30" viewBox="0 0 467 30" fill="none" xmlns="http://www.w3.org/2000/svg">
<path d="M0 14.6C0 12.8934 0.293333 11.2 0.88 9.52002C1.49333 7.84002 2.37333 6.33336 3.52 5.00002C4.66667 3.64002 6.06667 2.54669 7.72 1.72002C9.4 0.866691 11.3067 0.440024 13.44 0.440024C15.9733 0.440024 18.12 1.02669 19.88 2.20002C21.6667 3.34669 22.9867 4.82669 23.84 6.64003L22.64 7.20002C22.1067 6.18669 21.48 5.33336 20.76 4.64003C20.0667 3.94669 19.3067 3.38669 18.48 2.96002C17.6533 2.53336 16.8 2.22669 15.92 2.04002C15.04 1.85336 14.16 1.76002 13.28 1.76002C11.3867 1.76002 9.69333 2.14669 8.2 2.92003C6.73333 3.66669 5.49333 4.65336 4.48 5.88002C3.46667 7.10669 2.69333 8.49336 2.16 10.04C1.65333 11.5867 1.4 13.1467 1.4 14.72C1.4 16.4534 1.70667 18.12 2.32 19.72C2.93333 21.32 3.77333 22.7334 4.84 23.96C5.93333 25.16 7.21333 26.12 8.68 26.84C10.1467 27.56 11.72 27.92 13.4 27.92C14.3067 27.92 15.2267 27.8134 16.16 27.6C17.0933 27.36 18 27.0134 18.88 26.56C19.76 26.08 20.5733 25.48 21.32 24.76C22.0667 24.04 22.7067 23.1734 23.24 22.16L24.48 22.64C24 23.7067 23.3467 24.6534 22.52 25.48C21.6933 26.3067 20.7733 27 19.76 27.56C18.7467 28.12 17.6667 28.5467 16.52 28.84C15.4 29.1067 14.3067 29.24 13.24 29.24C11.2933 29.24 9.50667 28.8134 7.88 27.96C6.28 27.1067 4.89333 26 3.72 24.64C2.54667 23.2534 1.62667 21.6934 0.96 19.96C0.32 18.2 0 16.4134 0 14.6Z" fill="white"/>
<path d="M64.78 29.2C62.8067 29.2 61.0067 28.7867 59.38 27.96C57.7533 27.1334 56.3533 26.0534 55.18 24.72C54.0067 23.3867 53.1 21.8534 52.46 20.12C51.82 18.3867 51.5 16.6134 51.5 14.8C51.5 12.9067 51.8333 11.0934 52.5 9.36002C53.1933 7.62669 54.1267 6.09336 55.3 4.76003C56.5 3.42669 57.9 2.37336 59.5 1.60002C61.1267 0.800024 62.8867 0.400024 64.78 0.400024C66.7533 0.400024 68.5533 0.826691 70.18 1.68002C71.8067 2.50669 73.1933 3.60002 74.34 4.96002C75.5133 6.32002 76.42 7.86669 77.06 9.60002C77.7 11.3067 78.02 13.04 78.02 14.8C78.02 16.72 77.6733 18.5467 76.98 20.28C76.3133 22.0134 75.38 23.5467 74.18 24.88C73.0067 26.1867 71.6067 27.24 69.98 28.04C68.38 28.8134 66.6467 29.2 64.78 29.2ZM52.9 14.8C52.9 16.5067 53.1933 18.1467 53.78 19.72C54.3667 21.2934 55.18 22.6934 56.22 23.92C57.2867 25.12 58.54 26.08 59.98 26.8C61.4467 27.52 63.0467 27.88 64.78 27.88C66.5667 27.88 68.18 27.5067 69.62 26.76C71.0867 25.9867 72.34 24.9867 73.38 23.76C74.42 22.5334 75.22 21.1334 75.78 19.56C76.34 17.9867 76.62 16.4 76.62 14.8C76.62 13.0934 76.3133 11.4534 75.7 9.88002C75.1133 8.30669 74.2867 6.92003 73.22 5.72003C72.18 4.49336 70.9267 3.52003 69.46 2.80002C68.02 2.08002 66.46 1.72002 64.78 1.72002C62.9933 1.72002 61.3667 2.10669 59.9 2.88002C58.46 3.62669 57.22 4.61336 56.18 5.84002C55.14 7.06669 54.3267 8.46669 53.74 10.04C53.18 11.5867 52.9 13.1734 52.9 14.8Z" fill="white"/>
<path d="M109.095 3.24002V29H107.695V0.600024H108.735L129.615 26.8V0.600024H131.015V29H129.655L109.095 3.24002Z" fill="white"/>
<path d="M179.191 4.80002C178.151 3.65336 177.004 2.85336 175.751 2.40003C174.498 1.92003 173.031 1.68002 171.351 1.68002C168.338 1.68002 166.151 2.25336 164.791 3.40002C163.431 4.54669 162.751 6.08002 162.751 8.00002C162.751 8.96002 162.911 9.77336 163.231 10.44C163.578 11.08 164.098 11.6267 164.791 12.08C165.484 12.5334 166.378 12.92 167.471 13.24C168.564 13.5334 169.871 13.84 171.391 14.16C172.938 14.48 174.338 14.8267 175.591 15.2C176.844 15.5734 177.911 16.0534 178.791 16.64C179.671 17.2 180.351 17.9067 180.831 18.76C181.311 19.6134 181.551 20.6667 181.551 21.92C181.551 23.12 181.311 24.1734 180.831 25.08C180.378 25.9867 179.711 26.7467 178.831 27.36C177.951 27.9734 176.884 28.44 175.631 28.76C174.404 29.0534 173.031 29.2 171.511 29.2C169.244 29.2 167.204 28.8534 165.391 28.16C163.578 27.44 161.898 26.3467 160.351 24.88L161.191 23.88C162.524 25.24 164.044 26.2667 165.751 26.96C167.458 27.6534 169.391 28 171.551 28C174.218 28 176.311 27.52 177.831 26.56C179.378 25.5734 180.151 24.08 180.151 22.08C180.151 21.0667 179.964 20.2134 179.591 19.52C179.218 18.8 178.644 18.2 177.871 17.72C177.124 17.2134 176.164 16.7867 174.991 16.44C173.844 16.0667 172.484 15.72 170.911 15.4C169.364 15.08 167.991 14.7467 166.791 14.4C165.618 14.0534 164.618 13.6134 163.791 13.08C162.991 12.5467 162.378 11.8934 161.951 11.12C161.551 10.3467 161.351 9.37336 161.351 8.20002C161.351 6.94669 161.591 5.84002 162.071 4.88002C162.551 3.89336 163.218 3.08002 164.071 2.44002C164.951 1.77336 166.004 1.26669 167.231 0.920025C168.458 0.573358 169.818 0.400024 171.311 0.400024C173.151 0.400024 174.764 0.666691 176.151 1.20002C177.538 1.73336 178.804 2.58669 179.951 3.76002L179.191 4.80002Z" fill="white"/>
<path d="M222.092 27.88C224.119 27.88 225.799 27.5067 227.133 26.76C228.493 25.9867 229.559 24.9867 230.333 23.76C231.106 22.5334 231.653 21.1467 231.973 19.6C232.293 18.0267 232.452 16.44 232.452 14.84V0.600024H233.812V14.84C233.812 16.7334 233.613 18.5467 233.213 20.28C232.813 22.0134 232.146 23.5467 231.213 24.88C230.306 26.1867 229.106 27.24 227.613 28.04C226.146 28.8134 224.319 29.2 222.133 29.2C219.893 29.2 218.013 28.7867 216.493 27.96C214.999 27.1334 213.799 26.0534 212.893 24.72C211.986 23.36 211.333 21.8267 210.933 20.12C210.559 18.3867 210.372 16.6267 210.372 14.84V0.600024H211.773V14.84C211.773 16.4934 211.932 18.1067 212.253 19.68C212.573 21.2267 213.133 22.6134 213.933 23.84C214.733 25.04 215.786 26.0134 217.092 26.76C218.426 27.5067 220.092 27.88 222.092 27.88Z" fill="white"/>
<path d="M265.047 29V0.600024H266.447V27.72H283.847V29H265.047Z" fill="white"/>
<path d="M327.083 1.88002H316.443V29H315.043V1.88002H304.403V0.600024H327.083V1.88002Z" fill="white"/>
<path d="M355.625 29V0.600024H357.025V29H355.625Z" fill="white"/>
<path d="M390.087 3.24002V29H388.688V0.600024H389.728L410.608 26.8V0.600024H412.008V29H410.647L390.087 3.24002Z" fill="white"/>
<path d="M464.983 24.36C462.103 27.5867 458.796 29.2 455.063 29.2C453.116 29.2 451.316 28.7867 449.663 27.96C448.036 27.1067 446.636 26 445.463 24.64C444.29 23.28 443.37 21.7467 442.703 20.04C442.036 18.3067 441.703 16.56 441.703 14.8C441.703 12.9334 442.023 11.1334 442.663 9.40003C443.303 7.66669 444.196 6.13336 445.343 4.80002C446.516 3.46669 447.89 2.40002 449.463 1.60002C451.063 0.800024 452.81 0.400024 454.703 0.400024C456.143 0.400024 457.436 0.560024 458.583 0.880025C459.73 1.17336 460.743 1.60002 461.623 2.16003C462.503 2.69336 463.263 3.34669 463.903 4.12002C464.543 4.86669 465.09 5.69336 465.543 6.60003L464.383 7.20002C463.343 5.25336 461.996 3.85336 460.343 3.00002C458.69 2.14669 456.796 1.72002 454.663 1.72002C452.876 1.72002 451.263 2.10669 449.823 2.88002C448.41 3.62669 447.196 4.61336 446.183 5.84002C445.196 7.06669 444.436 8.46669 443.903 10.04C443.37 11.5867 443.103 13.1734 443.103 14.8C443.103 16.5334 443.41 18.1867 444.023 19.76C444.663 21.3334 445.516 22.72 446.583 23.92C447.676 25.12 448.956 26.08 450.423 26.8C451.89 27.52 453.463 27.88 455.143 27.88C456.93 27.88 458.623 27.4667 460.223 26.64C461.85 25.8134 463.436 24.5067 464.983 22.72V16.56H458.423V15.36H466.263V29H464.983V24.36Z" fill="white"/>
</svg>
